<svg version="1.1" viewBox="0 0 30 30" xmlns="http://www.w3.org/2000/svg" xmlns:xlink="http://www.w3.org/1999/xlink" overflow="hidden"><style>
.MsftOfcThm_Text1_Fill {
 fill:#000000; 
}
</style>
<g><path d=" M 24 2 L 11 2 C 7.69 2 5 4.69 5 8 L 5 27 C 5 27.55 5.45 28 6 28 L 24 28 C 24.55 28 25 27.55 25 27 L 25 3 C 25 2.45 24.55 2 24 2 Z M 23 26 L 7 26 L 7 8 C 7 5.79 8.79 4 11 4 L 23 4 L 23 26 Z" stroke="none" stroke-width="1" stroke-dasharray="" stroke-dashoffset="1" fill="#000000" fill-opacity="1"/><path d=" M 15.04 19.37 C 14.66 19.37 14.34 19.5 14.07 19.76 C 13.8 20.02 13.67 20.34 13.67 20.7 C 13.67 20.88 13.71 21.05 13.78 21.21 C 13.85 21.37 13.95 21.51 14.08 21.62 C 14.2 21.73 14.35 21.83 14.52 21.89 C 14.69 21.95 14.86 21.99 15.04 21.99 C 15.42 21.99 15.74 21.86 16.01 21.6 C 16.28 21.34 16.41 21.02 16.41 20.66 C 16.41 20.29 16.27 19.99 16 19.74 C 15.73 19.49 15.41 19.37 15.04 19.37 Z" stroke="none" stroke-width="1" stroke-dasharray="" stroke-dashoffset="1" fill="#000000" fill-opacity="1"/><path d=" M 13.97 11.44 C 14.28 11.12 14.67 10.95 15.15 10.95 C 15.59 10.95 15.96 11.09 16.25 11.37 C 16.54 11.65 16.69 12.01 16.69 12.46 C 16.69 12.92 16.55 13.29 16.26 13.57 L 14.94 14.9 C 14.77 15.08 14.62 15.24 14.5 15.37 C 14.38 15.5 14.28 15.64 14.21 15.78 C 14.14 15.92 14.09 16.08 14.06 16.26 C 14.03 16.44 14.02 16.65 14.02 16.9 L 14.02 18 L 16 18 L 16 17.19 C 16 16.97 16.09 16.79 16.12 16.64 C 16.15 16.49 16.21 16.35 16.28 16.23 C 16.35 16.11 16.45 15.99 16.56 15.88 C 16.67 15.77 16.81 15.63 16.97 15.49 C 17.22 15.25 17.46 15.02 17.68 14.81 C 17.9 14.59 18.1 14.37 18.27 14.13 C 18.44 13.89 18.58 13.63 18.68 13.34 C 18.78 13.06 18.83 12.72 18.83 12.35 C 18.83 11.81 18.74 11.34 18.56 10.92 C 18.38 10.5 18.12 10.16 17.8 9.88 C 17.48 9.6 17.09 9.39 16.65 9.24 C 16.22 9.07 15.75 9 15.23 9 C 14.68 9 14.18 9.08 13.73 9.23 C 13.27 9.38 12.87 9.61 12.52 9.91 C 12.17 10.21 11.89 10.57 11.67 10.99 C 11.45 11.42 11.31 11.91 11.24 12.45 L 13.43 12.62 C 13.48 12.16 13.66 11.76 13.97 11.44 Z" stroke="none" stroke-width="1" stroke-dasharray="" stroke-dashoffset="1" fill="#000000" fill-opacity="1"/></g></svg>