<svg version="1.1" viewBox="0 0 30 30" xmlns="http://www.w3.org/2000/svg" xmlns:xlink="http://www.w3.org/1999/xlink" overflow="hidden"><style>
.MsftOfcThm_Text1_Fill {
 fill:#000000; 
}
</style>
<path d=" M 11.98 13 L 18.02 13 L 18.02 14.85 C 17.07 17.1 16.14 20 15.56 23 L 13.1 23 C 13.68 20.31 14.53 17.45 15.51 15.12 C 14.92 15.13 13.78 15.16 11.97 15.16 L 11.97 13 Z M 26 7 L 26 25 C 26 26.65 24.65 28 23 28 L 7 28 C 5.35 28 4 26.65 4 25 L 4 7 C 4 6.45 4.45 6 5 6 L 8 6 L 8 3 C 8 2.45 8.45 2 9 2 C 9.55 2 10 2.45 10 3 L 10 6 L 20 6 L 20 3 C 20 2.45 20.45 2 21 2 C 21.55 2 22 2.45 22 3 L 22 6 L 25 6 C 25.55 6 26 6.45 26 7 Z M 24 25 L 24 10 L 6 10 L 6 25 C 6 25.55 6.45 26 7 26 L 23 26 C 23.55 26 24 25.55 24 25 Z" stroke="none" stroke-width="1" stroke-dasharray="" stroke-dashoffset="1" fill="#000000" fill-opacity="1"/></svg>