<svg version="1.1" viewBox="0 0 30 30" xmlns="http://www.w3.org/2000/svg" xmlns:xlink="http://www.w3.org/1999/xlink" overflow="hidden"><style>
.MsftOfcThm_Text1_Fill {
 fill:#001155; 
}
</style>
<path d=" M 15 2 C 7.8203 2 2 7.8203 2 15 C 2 22.1797 7.8203 28 15 28 C 22.1797 28 28 22.1797 28 15 C 28 7.8203 22.1797 2 15 2 Z M 15 26 C 8.92487 26 4 21.0751 4 15 C 4 8.92487 8.92487 4 15 4 C 21.0751 4 26 8.92487 26 15 C 26 21.0751 21.0751 26 15 26 Z" stroke="none" stroke-width="1" stroke-dasharray="" stroke-dashoffset="1" fill="#001155" fill-opacity="1"/><path d=" M 16.41 15 L 20.7 10.71 C 21.0592 10.2905 21.0104 9.65924 20.5909 9.3 C 20.2165 8.97939 19.6644 8.97939 19.29 9.3 L 15 13.59 L 10.71 9.29 C 10.2905 8.93076 9.65924 8.9796 9.3 9.39909 C 8.97939 9.77346 8.97939 10.3256 9.3 10.7 L 13.59 15 L 9.3 19.29 C 8.94076 19.7095 8.9896 20.3408 9.40909 20.7 C 9.78346 21.0206 10.3356 21.0206 10.71 20.7 L 15 16.41 L 19.29 20.7 C 19.7095 21.0592 20.3408 21.0104 20.7 20.5909 C 21.0206 20.2165 21.0206 19.6644 20.7 19.29 Z" stroke="none" stroke-width="1" stroke-dasharray="" stroke-dashoffset="1" fill="#001155" fill-opacity="1"/></svg>