<svg version="1.1" viewBox="0 0 30 30" xmlns="http://www.w3.org/2000/svg" xmlns:xlink="http://www.w3.org/1999/xlink" overflow="hidden"><style>
.MsftOfcThm_Text1_Fill {
 fill:#001155; 
}
</style>
<path d=" M 26 13 L 10 13 C 9.4 13 9 12.6 9 12 C 9 11.4 9.4 11 10 11 L 26 11 C 26.6 11 27 11.4 27 12 C 27 12.6 26.6 13 26 13 Z M 6 13 L 4 13 C 3.4 13 3 12.6 3 12 C 3 11.4 3.4 11 4 11 L 6 11 C 6.6 11 7 11.4 7 12 C 7 12.6 6.6 13 6 13 Z M 26 7 L 10 7 C 9.4 7 9 6.6 9 6 C 9 5.4 9.4 5 10 5 L 26 5 C 26.6 5 27 5.4 27 6 C 27 6.6 26.6 7 26 7 Z M 6 7 L 4 7 C 3.4 7 3 6.6 3 6 C 3 5.4 3.4 5 4 5 L 6 5 C 6.6 5 7 5.4 7 6 C 7 6.6 6.6 7 6 7 Z M 26 25 L 10 25 C 9.4 25 9 24.6 9 24 C 9 23.4 9.4 23 10 23 L 26 23 C 26.6 23 27 23.4 27 24 C 27 24.6 26.6 25 26 25 Z M 6 25 L 4 25 C 3.4 25 3 24.6 3 24 C 3 23.4 3.4 23 4 23 L 6 23 C 6.6 23 7 23.4 7 24 C 7 24.6 6.6 25 6 25 Z M 26 19 L 10 19 C 9.4 19 9 18.6 9 18 C 9 17.4 9.4 17 10 17 L 26 17 C 26.6 17 27 17.4 27 18 C 27 18.6 26.6 19 26 19 Z M 6 19 L 4 19 C 3.4 19 3 18.6 3 18 C 3 17.4 3.4 17 4 17 L 6 17 C 6.6 17 7 17.4 7 18 C 7 18.6 6.6 19 6 19 Z" stroke="none" stroke-width="1" stroke-dasharray="" stroke-dashoffset="1" fill="#001155" fill-opacity="1"/></svg>