<svg version="1.1" viewBox="0 0 30 30" xmlns="http://www.w3.org/2000/svg" xmlns:xlink="http://www.w3.org/1999/xlink" overflow="hidden"><style>
.MsftOfcThm_Text1_Fill {
 fill:#000000; 
}
</style>
<path d=" M 26.1 10.1 C 25.8 9 25.1 8 24.1 7.4 C 23.7 7.2 23.3 6.8 22.9 6.3 C 22.5 5.9 22.3 5.4 22.1 4.9 C 21.7 3.8 21 2.8 19.9 2.3 C 18.9 1.8 17.7 1.8 16.5 2.2 C 15.6 2.5 14.2 2.5 13.4 2.2 C 12.3 1.8 11.1 1.8 10 2.3 C 9 2.9 8.3 3.8 7.9 5 C 7.7 5.4 7.5 5.9 7.1 6.4 C 6.7 6.8 6.3 7.2 6 7.4 C 5 8 4.2 9 4 10.1 C 3.7 11.2 4 12.4 4.6 13.4 C 4.9 13.8 5.1 14.3 5.2 14.9 C 5.3 15.5 5.4 16 5.3 16.5 C 5.1 17.7 5.4 18.9 6.2 19.8 C 6.8 20.6 7.8 21.1 8.8 21.3 L 7.3 22.8 C 7.1 23 7 23.2 7 23.5 C 7 23.8 7.1 24 7.3 24.2 L 10.8 27.7 C 11 27.9 11.3 28 11.5 28 C 11.8 28 12 27.9 12.2 27.7 L 15 24.9 L 17.8 27.7 C 18 27.9 18.2 28 18.5 28 C 18.8 28 19 27.9 19.2 27.7 L 22.7 24.2 C 23.1 23.8 23.1 23.2 22.7 22.8 L 21.2 21.3 C 22.3 21.1 23.2 20.6 23.8 19.8 C 24.5 18.9 24.8 17.7 24.7 16.5 C 24.6 16.1 24.7 15.5 24.8 14.9 C 24.9 14.3 25.1 13.8 25.4 13.4 C 26.1 12.4 26.3 11.2 26.1 10.1 Z M 11.5 25.6 L 9.4 23.5 L 11 21.9 C 11.4 22.1 11.8 22.4 12 22.6 C 12.4 23.1 12.9 23.4 13.5 23.6 L 11.5 25.6 Z M 18.5 25.6 L 16.6 23.7 C 17.2 23.5 17.7 23.1 18.1 22.7 C 18.3 22.4 18.7 22.2 19.1 22 L 20.7 23.6 L 18.5 25.6 Z M 23.8 12.3 C 23.4 12.9 23.1 13.6 22.9 14.4 C 22.7 15.2 22.7 16 22.8 16.7 C 22.9 17.3 22.7 17.9 22.4 18.4 C 22 18.9 21.5 19.2 20.8 19.2 C 20.1 19.3 19.3 19.5 18.6 19.8 C 17.8 20.2 17.2 20.6 16.7 21.1 C 15.9 22 14.3 22 13.5 21.1 C 13 20.6 12.4 20.1 11.6 19.8 C 10.9 19.4 10.1 19.2 9.4 19.2 C 8.7 19.1 8.2 18.9 7.8 18.4 C 7.4 17.9 7.3 17.3 7.4 16.7 C 7.5 16 7.5 15.2 7.3 14.4 C 7.1 13.6 6.8 12.9 6.4 12.3 C 6 11.8 5.9 11.1 6 10.5 C 6 10 6.4 9.5 6.9 9.1 C 7.5 8.8 8.1 8.2 8.6 7.6 C 9.1 7 9.5 6.3 9.7 5.6 C 10 5 10.4 4.5 10.9 4.2 C 11.2 4.1 11.6 4 11.9 4 C 12.2 4 12.5 4.1 12.7 4.2 C 13.9 4.7 15.9 4.7 17.3 4.2 C 17.9 4 18.5 4 19.1 4.2 C 19.6 4.5 20.1 4.9 20.3 5.6 C 20.5 6.3 20.9 7 21.4 7.6 C 21.9 8.3 22.5 8.8 23.1 9.1 C 23.6 9.4 24 9.9 24.2 10.5 C 24.3 11.2 24.1 11.8 23.8 12.3 Z" stroke="none" stroke-width="1" stroke-dasharray="" stroke-dashoffset="1" fill="#000000" fill-opacity="1"/><path d=" M 15 6.6 C 11.7 6.6 9 9.3 9 12.6 C 9 15.9 11.7 18.6 15 18.6 C 18.3 18.6 21 15.9 21 12.6 C 21 9.3 18.3 6.6 15 6.6 Z M 15 16.6 C 12.8 16.6 11 14.8 11 12.6 C 11 10.4 12.8 8.6 15 8.6 C 17.2 8.6 19 10.4 19 12.6 C 19 14.8 17.2 16.6 15 16.6 Z" stroke="none" stroke-width="1" stroke-dasharray="" stroke-dashoffset="1" fill="#000000" fill-opacity="1"/></svg>