<svg version="1.1" viewBox="0 0 30 30" xmlns="http://www.w3.org/2000/svg" xmlns:xlink="http://www.w3.org/1999/xlink" overflow="hidden"><style>
.MsftOfcThm_Text1_Fill {
 fill:#000000; 
}
</style>
<path d=" M 27.89 22.55 L 26 18.76 L 26 7 C 26 5.35 24.65 4 23 4 L 7 4 C 5.35 4 4 5.35 4 7 L 4 18.76 L 2.11 22.55 C 2.04 22.69 2 22.84 2 23 L 2 25 C 2 25.55 2.45 26 3 26 L 27 26 C 27.55 26 28 25.55 28 25 L 28 23 C 28 22.84 27.96 22.69 27.89 22.55 Z M 6 7 C 6 6.45 6.45 6 7 6 L 23 6 C 23.55 6 24 6.45 24 7 L 24 18 L 6 18 L 6 7 Z M 26 24 L 4 24 L 4 23.24 L 5.62 20 L 24.38 20 L 26 23.24 L 26 24 Z M 8 8 L 22 8 L 22 16 L 8 16 L 8 8 Z" stroke="none" stroke-width="1" stroke-dasharray="" stroke-dashoffset="1" fill="#000000" fill-opacity="1"/></svg>