<svg version="1.1" viewBox="0 0 30 30" xmlns="http://www.w3.org/2000/svg" xmlns:xlink="http://www.w3.org/1999/xlink" overflow="hidden"><style>
.MsftOfcThm_Text1_Fill {
 fill:#001155; 
}
</style>
<g><path d=" M 18 28 L 12 28 C 11.4 28 11 27.6 11 27 C 11 26.4 11.4 26 12 26 L 18 26 C 18.6 26 19 26.4 19 27 C 19 27.6 18.6 28 18 28 Z" stroke="none" stroke-width="1" stroke-dasharray="" stroke-dashoffset="1" fill="#001155" fill-opacity="1"/><path d=" M 11 12 C 10.4 12 10 11.6 10 11 C 10 8.4 12.4 6 15 6 C 15.6 6 16 6.4 16 7 C 16 7.6 15.6 8 15 8 C 13.5 8 12 9.5 12 11 C 12 11.6 11.6 12 11 12 Z" stroke="none" stroke-width="1" stroke-dasharray="" stroke-dashoffset="1" fill="#001155" fill-opacity="1"/><path d=" M 18 24 L 12 24 C 11.4 24 11 23.6 11 23 C 11 20.2 9.8 18.7 8.5 17 C 7.3 15.4 6 13.7 6 11 C 6 6 10 2 15 2 C 20 2 24 6 24 11 C 24 13.7 22.7 15.4 21.5 17 C 20.2 18.6 19 20.2 19 23 C 19 23.6 18.6 24 18 24 Z M 13 22 L 17 22 C 17.3 19.1 18.6 17.4 19.8 15.8 C 21 14.3 22 13 22 11 C 22 7.1 18.9 4 15 4 C 11.1 4 8 7.1 8 11 C 8 13 9 14.3 10.1 15.8 C 11.3 17.4 12.7 19.1 13 22 Z" stroke="none" stroke-width="1" stroke-dasharray="" stroke-dashoffset="1" fill="#001155" fill-opacity="1"/></g></svg>