<svg version="1.1" viewBox="0 0 30 30" xmlns="http://www.w3.org/2000/svg" xmlns:xlink="http://www.w3.org/1999/xlink" overflow="hidden"><style>
.MsftOfcThm_Text1_Fill {
 fill:#000000; 
}
</style>
<path d=" M 19.85 15.53 L 14.85 23.53 C 14.67 23.81 14.36 24 14 24 C 13.67 24 13.38 23.84 13.2 23.6 L 10.2 19.6 C 9.87 19.16 9.96 18.53 10.4 18.2 C 10.84 17.87 11.47 17.96 11.8 18.4 L 13.92 21.23 L 18.15 14.47 C 18.44 14 19.06 13.86 19.53 14.15 C 20 14.44 20.14 15.06 19.85 15.53 Z M 28 13 L 28 27 C 28 27.55 27.55 28 27 28 L 3 28 C 2.45 28 2 27.55 2 27 L 2 13 C 2 11.35 3.35 10 5 10 L 25 10 C 26.65 10 28 11.35 28 13 Z M 26 13 C 26 12.45 25.55 12 25 12 L 5 12 C 4.45 12 4 12.45 4 13 L 4 26 L 26 26 L 26 13 Z" stroke="none" stroke-width="1" stroke-dasharray="" stroke-dashoffset="1" fill="#000000" fill-opacity="1"/></svg>