<svg version="1.1" viewBox="0 0 96 96" xmlns="http://www.w3.org/2000/svg" xmlns:xlink="http://www.w3.org/1999/xlink" id="Icons_FlipCalendar" overflow="hidden"><g><path d=" M 29 26 C 30.7 26 32 24.7 32 23 L 32 17 C 32 15.3 30.7 14 29 14 C 27.3 14 26 15.3 26 17 L 26 23 C 26 24.7 27.3 26 29 26 Z"/><path d=" M 20 44 L 76 44 L 76 76 L 20 76 L 20 44 Z M 14 82 L 82 82 L 82 38 L 14 38 L 14 82 Z"/><path d=" M 67 26 C 68.7 26 70 24.7 70 23 L 70 17 C 70 15.3 68.7 14 67 14 C 65.3 14 64 15.3 64 17 L 64 23 C 64 24.7 65.3 26 67 26 Z"/><path d=" M 74 20 L 74 23 C 74 26.9 70.9 30 67 30 C 63.1 30 60 26.9 60 23 L 60 20 L 36 20 L 36 23 C 36 26.9 32.9 30 29 30 C 25.1 30 22 26.9 22 23 L 22 20 L 14 20 L 14 34 L 82 34 L 82 20 L 74 20 Z"/></g></svg>