<svg version="1.1" viewBox="0 0 30 30" xmlns="http://www.w3.org/2000/svg" xmlns:xlink="http://www.w3.org/1999/xlink" overflow="hidden"><style>
.MsftOfcThm_Text1_Fill {
 fill:#001155; 
}
</style>
<path d=" M 15 2 C 7.83 2 2 7.83 2 15 C 2 22.17 7.83 28 15 28 C 22.17 28 28 22.17 28 15 C 28 7.83 22.17 2 15 2 Z M 24.79 10 L 21 10 C 20.66 10 20.34 10.18 20.15 10.47 C 19.97 10.76 19.95 11.13 20.1 11.44 L 21.83 15.02 L 18.47 20 L 17.62 20 L 15.9 16.55 C 15.72 16.21 15.38 16 15 16 L 12 16 L 12 12 L 17 12 C 17.55 12 18 11.55 18 11 L 18 7 C 18 6.45 17.55 6 17 6 L 14.62 6 L 15.6 4.03 C 19.61 4.25 23.05 6.61 24.79 10 Z M 4.02 15.44 L 6 17.41 L 6 21.3 C 4.82 19.63 4.11 17.61 4.02 15.44 Z M 15 26 C 12.34 26 9.9 25.05 8 23.48 L 8 17 C 8 16.73 7.89 16.48 7.71 16.29 L 4.22 12.8 C 5.13 8.33 8.77 4.84 13.31 4.14 L 12.11 6.55 C 11.95 6.86 11.97 7.23 12.15 7.52 C 12.33 7.81 12.65 8 13 8 L 16 8 L 16 10 L 11 10 C 10.45 10 10 10.45 10 11 L 10 17 C 10 17.55 10.45 18 11 18 L 14.38 18 L 16.1 21.45 C 16.27 21.79 16.62 22 17 22 C 17 22 19 22 19 22 C 19.33 22 19.64 21.83 19.83 21.56 L 23.81 15.65 C 24.01 15.36 24.04 14.98 23.88 14.66 L 22.6 12 L 25.58 12 C 25.85 12.96 26.01 13.96 26.01 15 C 26 21.07 21.07 26 15 26 Z" stroke="none" stroke-width="1" stroke-dasharray="" stroke-dashoffset="1" fill="#001155" fill-opacity="1"/></svg>