<svg version="1.1" viewBox="0 0 30 30" xmlns="http://www.w3.org/2000/svg" xmlns:xlink="http://www.w3.org/1999/xlink" overflow="hidden"><style>
.MsftOfcThm_Text1_Fill {
 fill:#001155; 
}
</style>
<path d=" M 4.29 15.71 L 12.29 23.71 C 12.68 24.1 13.31 24.1 13.7 23.71 C 14.09 23.32 14.09 22.69 13.7 22.3 L 6.41 15 L 13.7 7.71 C 14.09 7.32 14.09 6.69 13.7 6.3 C 13.31 5.91 12.68 5.91 12.29 6.3 L 4.29 14.3 C 3.9 14.68 3.9 15.32 4.29 15.71 Z M 14.29 14.29 L 22.29 6.29 C 22.68 5.9 23.31 5.9 23.7 6.29 C 24.09 6.68 24.09 7.31 23.7 7.7 L 16.41 15 L 23.7 22.29 C 24.09 22.68 24.09 23.31 23.7 23.7 C 23.31 24.09 22.68 24.09 22.29 23.7 L 14.29 15.7 C 13.9 15.32 13.9 14.68 14.29 14.29 Z" stroke="none" stroke-width="1" stroke-dasharray="" stroke-dashoffset="1" fill="#001155" fill-opacity="1"/></svg>