<svg version="1.1" viewBox="0 0 30 30" xmlns="http://www.w3.org/2000/svg" xmlns:xlink="http://www.w3.org/1999/xlink" overflow="hidden"><style>
.MsftOfcThm_Text1_Fill {
 fill:#001155; 
}
</style>
<path d=" M 15 10 C 17.21 10 19 8.21 19 6 C 19 3.79 17.21 2 15 2 C 12.79 2 11 3.79 11 6 C 11 8.21 12.79 10 15 10 Z M 15 4 C 16.1 4 17 4.9 17 6 C 17 7.1 16.1 8 15 8 C 13.9 8 13 7.1 13 6 C 13 4.9 13.9 4 15 4 Z M 6 12 C 7.65 12 9 10.65 9 9 C 9 7.35 7.65 6 6 6 C 4.35 6 3 7.35 3 9 C 3 10.65 4.35 12 6 12 Z M 6 8 C 6.55 8 7 8.45 7 9 C 7 9.55 6.55 10 6 10 C 5.45 10 5 9.55 5 9 C 5 8.45 5.45 8 6 8 Z M 24 12 C 25.65 12 27 10.65 27 9 C 27 7.35 25.65 6 24 6 C 22.35 6 21 7.35 21 9 C 21 10.65 22.35 12 24 12 Z M 24 8 C 24.55 8 25 8.45 25 9 C 25 9.55 24.55 10 24 10 C 23.45 10 23 9.55 23 9 C 23 8.45 23.45 8 24 8 Z M 25 14 L 21.44 14 C 20.75 12.81 19.47 12 18 12 L 12 12 C 10.53 12 9.25 12.81 8.56 14 L 5 14 C 3.35 14 2 15.35 2 17 L 2 25 C 2 25.55 2.45 26 3 26 L 27 26 C 27.55 26 28 25.55 28 25 L 28 17 C 28 15.35 26.65 14 25 14 Z M 8 24 L 4 24 L 4 17 C 4 16.45 4.45 16 5 16 L 8 16 L 8 24 Z M 20 24 L 10 24 L 10 16 C 10 14.9 10.9 14 12 14 L 18 14 C 19.1 14 20 14.9 20 16 L 20 24 Z M 26 24 L 22 24 L 22 16 L 25 16 C 25.55 16 26 16.45 26 17 L 26 24 Z" stroke="none" stroke-width="1" stroke-dasharray="" stroke-dashoffset="1" fill="#001155" fill-opacity="1"/></svg>