<svg version="1.1" viewBox="0 0 30 30" xmlns="http://www.w3.org/2000/svg" xmlns:xlink="http://www.w3.org/1999/xlink" overflow="hidden"><style>
.MsftOfcThm_Text1_Fill {
 fill:#001155; 
}
</style>
<path d=" M 22 18 C 20.8 18 19.7 18.6 18.9 19.5 L 11.8 16.2 C 11.9 15.8 12 15.5 12 15.1 C 12 14.7 11.9 14.3 11.8 14 L 18.9 10.7 C 19.6 11.6 20.7 12.2 22 12.2 C 24.2 12.2 26 10.4 26 8.2 C 26 6 24.2 4.2 22 4.2 C 19.8 4.2 18 6 18 8.2 C 18 8.4 18 8.7 18.1 8.9 L 10.8 12.3 C 10.1 11.4 9.1 11 8 11 C 5.8 11 4 12.8 4 15 C 4 17.2 5.8 19 8 19 C 9.1 19 10.1 18.6 10.8 17.9 L 18.1 21.3 C 18.1 21.5 18 21.8 18 22 C 18 24.2 19.8 26 22 26 C 24.2 26 26 24.2 26 22 C 26 19.8 24.2 18 22 18 Z M 22 6 C 23.1 6 24 6.9 24 8 C 24 9.1 23.1 10 22 10 C 20.9 10 20 9.1 20 8 C 20 6.9 20.9 6 22 6 Z M 8 17 C 6.9 17 6 16.1 6 15 C 6 13.9 6.9 13 8 13 C 9.1 13 10 13.9 10 15 C 10 16.1 9.1 17 8 17 Z M 22 24 C 20.9 24 20 23.1 20 22 C 20 20.9 20.9 20 22 20 C 23.1 20 24 20.9 24 22 C 24 23.1 23.1 24 22 24 Z" stroke="none" stroke-width="1" stroke-dasharray="" stroke-dashoffset="1" fill="#001155" fill-opacity="1"/></svg>