<svg version="1.1" viewBox="0 0 30 30" xmlns="http://www.w3.org/2000/svg" xmlns:xlink="http://www.w3.org/1999/xlink" overflow="hidden"><style>
.MsftOfcThm_Text1_Fill {
 fill:#001155; 
}
</style>
<path d=" M 26 17 L 21.3 17 L 18.9 12.8 C 19.6 12.5 20 11.8 20 11 L 20 5 C 20 3.9 19.1 3 18 3 L 12 3 C 10.9 3 10 3.9 10 5 L 10 11 C 10 11.8 10.5 12.5 11.2 12.8 L 8.7 17 L 4 17 C 2.9 17 2 17.9 2 19 L 2 25 C 2 26.1 2.9 27 4 27 L 10 27 C 11.1 27 12 26.1 12 25 L 12 23 L 18 23 L 18 25 C 18 26.1 18.9 27 20 27 L 26 27 C 27.1 27 28 26.1 28 25 L 28 19 C 28 17.9 27.1 17 26 17 Z M 12 5 L 18 5 L 18 11 L 12 11 L 12 5 Z M 4 25 L 4 19 L 10 19 L 10 25 L 4 25 Z M 12 21 L 12 19 C 12 18.2 11.6 17.6 10.9 17.2 L 13.3 13 L 16.6 13 L 19.1 17.2 C 18.4 17.5 18.1 18.2 18.1 19 L 18.1 21 L 12 21 Z M 20 25 L 20 19 L 26 19 L 26 25 L 20 25 Z" stroke="none" stroke-width="1" stroke-dasharray="" stroke-dashoffset="1" fill="#001155" fill-opacity="1"/></svg>