<svg version="1.1" viewBox="0 0 30 30" xmlns="http://www.w3.org/2000/svg" xmlns:xlink="http://www.w3.org/1999/xlink" overflow="hidden"><style>
.MsftOfcThm_Text1_Fill {
 fill:#001155; 
}
</style>
<path d=" M 27 4 L 3 4 C 2.45 4 2 4.45 2 5 L 2 18 C 2 20.21 3.79 22 6 22 L 8 22 L 8 27 C 8 27.55 8.45 28 9 28 C 9.23 28 9.43 27.93 9.6 27.8 L 17.33 22 L 24 22 C 26.21 22 28 20.21 28 18 L 28 5 C 28 4.45 27.55 4 27 4 Z M 26 18 C 26 19.1 25.1 20 24 20 L 17 20 C 16.78 20 16.57 20.07 16.4 20.2 L 10 25 L 10 21 C 10 20.45 9.55 20 9 20 L 6 20 C 4.9 20 4 19.1 4 18 L 4 6 L 26 6 L 26 18 Z" stroke="none" stroke-width="1" stroke-dasharray="" stroke-dashoffset="1" fill="#001155" fill-opacity="1"/></svg>