<svg version="1.1" viewBox="0 0 30 30" xmlns="http://www.w3.org/2000/svg" xmlns:xlink="http://www.w3.org/1999/xlink" overflow="hidden"><style>
.MsftOfcThm_Text1_Fill {
 fill:#001155; 
}
</style>
<path d=" M 22.74 11.99 L 26.59 5.51 C 26.78 5.2 26.78 4.8 26.6 4.49 C 26.42 4.17 26.08 3.97 25.71 3.97 L 7 3.97 C 6.44 3.97 5.98 4.43 5.98 4.99 L 5.98 26.99 C 5.98 27.55 6.44 28.01 7 28.01 C 7.56 28.01 8.02 27.55 8.02 26.99 L 8.02 20.01 L 25.71 20.01 C 26.08 20.01 26.42 19.81 26.6 19.49 C 26.78 19.17 26.78 18.78 26.59 18.47 L 22.74 11.99 Z M 8.02 17.97 L 8.02 6.01 L 23.92 6.01 L 20.68 11.47 C 20.49 11.79 20.49 12.19 20.68 12.51 L 23.92 17.97 L 8.02 17.97 Z" stroke="none" stroke-width="1" stroke-dasharray="" stroke-dashoffset="1" fill="#001155" fill-opacity="1"/></svg>