<svg version="1.1" viewBox="0 0 30 30" xmlns="http://www.w3.org/2000/svg" xmlns:xlink="http://www.w3.org/1999/xlink" overflow="hidden"><style>
.MsftOfcThm_Text1_Fill {
 fill:#000000; 
}
</style>
<path d=" M 15 2 C 7.83 2 2 7.83 2 15 C 2 22.17 7.83 28 15 28 C 22.17 28 28 22.17 28 15 C 28 7.83 22.17 2 15 2 Z M 15 26 C 13.31 26 11.49 23.68 10.58 20 L 19.42 20 C 18.51 23.68 16.69 26 15 26 Z M 10.2 18 C 10.07 17.06 10 16.06 10 15 C 10 13.94 10.08 12.94 10.2 12 L 19.79 12 C 19.92 12.94 19.99 13.94 19.99 15 C 19.99 16.06 19.91 17.06 19.79 18 L 10.2 18 Z M 4 15 C 4 13.96 4.15 12.96 4.43 12 L 8.19 12 C 8.07 12.96 8 13.96 8 15 C 8 16.04 8.07 17.04 8.19 18 L 4.43 18 C 4.15 17.04 4 16.04 4 15 Z M 15 4 C 16.69 4 18.51 6.32 19.42 10 L 10.58 10 C 11.49 6.32 13.31 4 15 4 Z M 21.81 12 L 25.57 12 C 25.84 12.96 26 13.96 26 15 C 26 16.04 25.85 17.04 25.57 18 L 21.81 18 C 21.93 17.04 22 16.04 22 15 C 22 13.96 21.93 12.96 21.81 12 Z M 24.79 10 L 21.48 10 C 21.05 8.02 20.37 6.31 19.5 4.97 C 21.78 6 23.65 7.78 24.79 10 Z M 10.5 4.97 C 9.63 6.31 8.95 8.02 8.52 10 L 5.21 10 C 6.35 7.78 8.22 6 10.5 4.97 Z M 5.21 20 L 8.52 20 C 8.95 21.98 9.63 23.69 10.5 25.03 C 8.22 24 6.35 22.22 5.21 20 Z M 19.5 25.03 C 20.36 23.7 21.05 21.98 21.48 20 L 24.79 20 C 23.65 22.22 21.78 24 19.5 25.03 Z" stroke="none" stroke-width="1" stroke-dasharray="" stroke-dashoffset="1" fill="#000000" fill-opacity="1"/></svg>