<svg version="1.1" viewBox="0 0 30 30" xmlns="http://www.w3.org/2000/svg" xmlns:xlink="http://www.w3.org/1999/xlink" overflow="hidden"><style>
.MsftOfcThm_Text1_Fill {
 fill:#001155; 
}
</style>
<path d=" M 25.71 15.71 L 17.71 23.71 C 17.32 24.1 16.69 24.1 16.3 23.71 C 15.91 23.32 15.91 22.69 16.3 22.3 L 23.59 15 L 16.3 7.71 C 15.91 7.32 15.91 6.69 16.3 6.3 C 16.69 5.91 17.32 5.91 17.71 6.3 L 25.71 14.3 C 26.1 14.68 26.1 15.32 25.71 15.71 Z M 15.71 14.29 L 7.71 6.29 C 7.32 5.9 6.69 5.9 6.3 6.29 C 5.91 6.68 5.91 7.31 6.3 7.7 L 13.59 15 L 6.3 22.29 C 5.91 22.68 5.91 23.31 6.3 23.7 C 6.69 24.09 7.32 24.09 7.71 23.7 L 15.71 15.7 C 16.1 15.32 16.1 14.68 15.71 14.29 Z" stroke="none" stroke-width="1" stroke-dasharray="" stroke-dashoffset="1" fill="#001155" fill-opacity="1"/></svg>