<svg version="1.1" viewBox="0 0 30 30" xmlns="http://www.w3.org/2000/svg" xmlns:xlink="http://www.w3.org/1999/xlink" overflow="hidden"><style>
.MsftOfcThm_Text1_Fill {
 fill:#001155; 
}
</style>
<path d=" M 17 15 C 17 16.1 16.1 17 15 17 C 13.9 17 13 16.1 13 15 C 13 13.9 13.9 13 15 13 C 16.1 13 17 13.9 17 15 Z M 7 13 C 5.9 13 5 13.9 5 15 C 5 16.1 5.9 17 7 17 C 8.1 17 9 16.1 9 15 C 9 13.9 8.1 13 7 13 Z M 23 13 C 21.9 13 21 13.9 21 15 C 21 16.1 21.9 17 23 17 C 24.1 17 25 16.1 25 15 C 25 13.9 24.1 13 23 13 Z" stroke="none" stroke-width="1" stroke-dasharray="" stroke-dashoffset="1" fill="#001155" fill-opacity="1"/></svg>