<svg version="1.1" viewBox="0 0 30 30" xmlns="http://www.w3.org/2000/svg" xmlns:xlink="http://www.w3.org/1999/xlink" overflow="hidden"><style>
.MsftOfcThm_Text1_Fill {
 fill:#000000; 
}
</style>
<path d=" M 23 28 L 5 28 C 4.45 28 4 27.55 4 27 L 4 8 C 4 4.69 6.69 2 10 2 L 23 2 C 23.55 2 24 2.45 24 3 L 24 27 C 24 27.55 23.55 28 23 28 Z M 6 26 L 22 26 L 22 4 L 10 4 C 7.79 4 6 5.79 6 8 L 6 26 Z M 19 11 C 19 10.45 18.55 10 18 10 L 10 10 C 9.45 10 9 10.45 9 11 C 9 11.55 9.45 12 10 12 L 18 12 C 18.55 12 19 11.55 19 11 Z M 19 15 C 19 14.45 18.55 14 18 14 L 10 14 C 9.45 14 9 14.45 9 15 C 9 15.55 9.45 16 10 16 L 18 16 C 18.55 16 19 15.55 19 15 Z" stroke="none" stroke-width="1" stroke-dasharray="" stroke-dashoffset="1" fill="#000000" fill-opacity="1"/></svg>