<svg version="1.1" viewBox="0 0 30 30" xmlns="http://www.w3.org/2000/svg" xmlns:xlink="http://www.w3.org/1999/xlink" overflow="hidden"><style>
.MsftOfcThm_Text1_Fill {
 fill:#001155; 
}
</style>
<path d=" M 12 20 L 12 14 C 12 13.64 12.19 13.31 12.51 13.13 C 12.83 12.95 13.21 12.96 13.52 13.14 L 18.52 16.14 C 18.82 16.32 19 16.65 19 17 C 19 17.35 18.82 17.68 18.51 17.86 L 13.51 20.86 C 13.2 21.05 12.82 21.05 12.5 20.87 C 12.18 20.69 12 20.36 12 20 Z M 28 7 L 28 25 C 28 25.55 27.55 26 27 26 L 3 26 C 2.45 26 2 25.55 2 25 L 2 7 C 2 5.35 3.35 4 5 4 L 25 4 C 26.65 4 28 5.35 28 7 Z M 11.41 8 L 16.58 8 L 18.58 6 L 13.41 6 L 11.41 8 Z M 4 8 L 8.58 8 L 10.58 6 L 5 6 C 4.45 6 4 6.45 4 7 L 4 8 Z M 26 10 L 4 10 L 4 24 L 26 24 L 26 10 Z M 26 7 C 26 6.45 25.55 6 25 6 L 21.41 6 L 19.41 8 L 26 8 L 26 7 Z" stroke="none" stroke-width="1" stroke-dasharray="" stroke-dashoffset="1" fill="#001155" fill-opacity="1"/></svg>