<svg version="1.1" viewBox="0 0 30 30" xmlns="http://www.w3.org/2000/svg" xmlns:xlink="http://www.w3.org/1999/xlink" overflow="hidden"><style>
.MsftOfcThm_Text1_Fill {
 fill:#001155; 
}
</style>
<path d=" M 9 27 C 5.69 27 3 24.31 3 21 C 3 19.4 3.62 17.89 4.76 16.76 L 11.16 10.19 C 11.92 9.42 12.93 9 14 9 C 16.21 9 18 10.79 18 13 C 18 14.07 17.58 15.08 16.83 15.83 L 11.12 21.7 C 10.73 22.1 10.1 22.1 9.71 21.72 C 9.31 21.33 9.31 20.7 9.69 20.31 L 15.41 14.43 C 15.79 14.04 16 13.54 16 13 C 16 11.9 15.1 11 14 11 C 13.47 11 12.96 11.21 12.58 11.59 L 6.18 18.16 C 5.42 18.93 5 19.93 5 21 C 5 23.21 6.79 25 9 25 C 10.07 25 11.07 24.58 11.83 23.83 L 23.83 11.83 C 24.58 11.07 25 10.07 25 9 C 25 6.79 23.21 5 21 5 C 19.93 5 18.93 5.42 18.17 6.17 L 17.13 7.21 C 16.74 7.6 16.11 7.6 15.72 7.21 C 15.33 6.82 15.33 6.19 15.72 5.8 L 16.76 4.76 C 17.9 3.62 19.4 3 21 3 C 24.31 3 27 5.69 27 9 C 27 10.6 26.38 12.1 25.25 13.24 L 13.25 25.24 C 12.11 26.38 10.6 27 9 27 Z" stroke="none" stroke-width="1" stroke-dasharray="" stroke-dashoffset="1" fill="#001155" fill-opacity="1"/></svg>