<svg version="1.1" viewBox="0 0 30 30" xmlns="http://www.w3.org/2000/svg" xmlns:xlink="http://www.w3.org/1999/xlink" overflow="hidden"><style>
.MsftOfcThm_Text1_Fill {
 fill:#001155; 
}
</style>
<path d=" M 4.29 24.29 C 3.9 24.68 3.9 25.32 4.29 25.71 C 4.68 26.1 5.31 26.1 5.7 25.71 L 11.38 20.03 C 12.93 21.26 14.88 22 17 22 C 21.96 22 26 17.96 26 13 C 26 8.04 21.96 4 17 4 C 12.04 4 8 8.04 8 13 C 8 15.12 8.74 17.07 9.97 18.61 L 4.29 24.29 Z M 17 20 C 13.14 20 10 16.86 10 13 C 10 9.14 13.14 6 17 6 C 20.86 6 24 9.14 24 13 C 24 16.86 20.86 20 17 20 Z" stroke="none" stroke-width="1" stroke-dasharray="" stroke-dashoffset="1" fill="#001155" fill-opacity="1"/></svg>